ffmpeg started on 2016-11-23 at 01:29:01
Report written to "Output/NVENCh264/results/ffmpeg/sintelmedium4000k.log"
Command line:
Tools/ffmpeg/ffmpeg -benchmark -y -i Input/y4m/sintel.y4m -c:v h264_nvenc -preset medium -b:v 4000k -an Output/NVENCh264/encoded/sintelmedium4000k.mkv
ffmpeg version N-82227-gdb23fde Copyright (c) 2000-2016 the FFmpeg developers
  built with gcc 5.4.0 (Ubuntu 5.4.0-6ubuntu1~16.04.2) 20160609
  configuration: --prefix=/home/jaroslav/ffmpeg_build --pkg-config-flags=--static --extra-cflags=-I/home/jaroslav/ffmpeg_build/include --extra-ldflags=-L/home/jaroslav/ffmpeg_build/lib --bindir=/home/jaroslav/bin --enable-gpl --enable-libass --enable-libfdk-aac --enable-libfreetype --enable-libmp3lame --enable-libopus --enable-libtheora --enable-libvorbis --enable-libvpx --enable-libx264 --enable-libx265 --enable-nvenc --enable-libmfx --enable-libxvid --enable-libgsm --enable-libopencore-amrnb --enable-version3 --enable-nonfree
  libavutil      55. 35.100 / 55. 35.100
  libavcodec     57. 66.101 / 57. 66.101
  libavformat    57. 57.100 / 57. 57.100
  libavdevice    57.  2.100 / 57.  2.100
  libavfilter     6. 66.100 /  6. 66.100
  libswscale      4.  3.100 /  4.  3.100
  libswresample   2.  4.100 /  2.  4.100
  libpostproc    54.  2.100 / 54.  2.100
Input #0, yuv4mpegpipe, from 'Input/y4m/sintel.y4m':
  Duration: 00:00:20.83, start: 0.000000, bitrate: 2057307 kb/s
    Stream #0:0: Video: rawvideo (I420 / 0x30323449), yuv420p(progressive), 4096x1744, SAR 1:1 DAR 256:109, 24 fps, 24 tbr, 24 tbn, 24 tbc
Output #0, matroska, to 'Output/NVENCh264/encoded/sintelmedium4000k.mkv':
  Metadata:
    encoder         : Lavf57.57.100
    Stream #0:0: Video: h264 (h264_nvenc) (Main) (H264 / 0x34363248), yuv420p, 4096x1744 [SAR 1:1 DAR 256:109], q=-1--1, 4000 kb/s, 24 fps, 1k tbn, 24 tbc
    Metadata:
      encoder         : Lavc57.66.101 h264_nvenc
    Side data:
      cpb: bitrate max/min/avg: 0/0/4000000 buffer size: 8000000 vbv_delay: -1
Stream mapping:
  Stream #0:0 -> #0:0 (rawvideo (native) -> h264 (h264_nvenc))
Press [q] to stop, [?] for help
frame=   22 fps=0.0 q=0.0 size=       0kB time=00:00:00.00 bitrate=N/A speed=   0x    frame=   43 fps= 43 q=41.0 size=       1kB time=00:00:00.50 bitrate=  11.7kbits/s speed=0.496x    frame=   64 fps= 42 q=43.0 size=       1kB time=00:00:01.37 bitrate=   4.3kbits/s speed=0.906x    frame=   85 fps= 42 q=42.0 size=       1kB time=00:00:02.25 bitrate=   2.6kbits/s speed=1.11x    frame=  106 fps= 42 q=43.0 size=       1kB time=00:00:03.12 bitrate=   1.9kbits/s speed=1.23x    frame=  127 fps= 42 q=43.0 size=       1kB time=00:00:04.00 bitrate=   1.5kbits/s speed=1.31x    frame=  147 fps= 41 q=43.0 size=    2179kB time=00:00:04.83 bitrate=3693.5kbits/s speed=1.36x    frame=  168 fps= 41 q=44.0 size=    2179kB time=00:00:05.70 bitrate=3127.4kbits/s speed=1.41x    frame=  177 fps= 23 q=43.0 size=    2179kB time=00:00:06.08 bitrate=2934.6kbits/s speed= 0.8x    frame=  178 fps= 16 q=43.0 size=    2179kB time=00:00:06.12 bitrate=2914.5kbits/s speed=0.562x    frame=  179 fps= 14 q=43.0 size=    2179kB time=00:00:06.16 bitrate=2894.7kbits/s speed=0.494x    frame=  200 fps= 15 q=42.0 size=    2179kB time=00:00:07.04 bitrate=2535.0kbits/s speed=0.541x    frame=  221 fps= 16 q=43.0 size=    2179kB time=00:00:07.91 bitrate=2254.9kbits/s speed=0.585x    frame=  242 fps= 17 q=43.0 size=    2179kB time=00:00:08.79 bitrate=2030.5kbits/s speed=0.627x    frame=  263 fps= 18 q=43.0 size=    2179kB time=00:00:09.66 bitrate=1846.7kbits/s speed=0.665x    frame=  284 fps= 19 q=42.0 size=    4192kB time=00:00:10.54 bitrate=3257.1kbits/s speed= 0.7x    frame=  305 fps= 20 q=41.0 size=    4542kB time=00:00:11.41 bitrate=3259.0kbits/s speed=0.733x    frame=  326 fps= 20 q=40.0 size=    4542kB time=00:00:12.29 bitrate=3027.0kbits/s speed=0.764x    frame=  347 fps= 21 q=38.0 size=    4542kB time=00:00:13.16 bitrate=2825.9kbits/s speed=0.794x    frame=  368 fps= 22 q=38.0 size=    4542kB time=00:00:14.04 bitrate=2649.8kbits/s speed=0.821x    frame=  389 fps= 22 q=38.0 size=    4542kB time=00:00:14.91 bitrate=2494.4kbits/s speed=0.847x    frame=  410 fps= 23 q=37.0 size=    4542kB time=00:00:15.79 bitrate=2356.2kbits/s speed=0.872x    frame=  431 fps= 23 q=38.0 size=    6102kB time=00:00:16.66 bitrate=2999.0kbits/s speed=0.894x    frame=  452 fps= 24 q=39.0 size=    6651kB time=00:00:17.54 bitrate=3105.8kbits/s speed=0.916x    frame=  473 fps= 24 q=37.0 size=    6651kB time=00:00:18.41 bitrate=2958.2kbits/s speed=0.937x    frame=  494 fps= 24 q=37.0 size=    6651kB time=00:00:19.29 bitrate=2824.1kbits/s speed=0.956x    frame=  500 fps= 25 q=36.0 Lsize=    7991kB time=00:00:20.79 bitrate=3148.2kbits/s speed=1.02x    
video:7986kB audio:0kB subtitle:0kB other streams:0kB global headers:0kB muxing overhead: 0.056787%
bench: utime=0.868s
bench: maxrss=835796kB
